<svg version="1.1" preserveAspectRatio="none" xmlns="http://www.w3.org/2000/svg" width="500" height="500" viewBox="0 0 500 500"><rect width="100%" height="100%" fill="#F3D548" fill-opacity="1"/><svg viewBox="418.7934 284.9811 401.3811 135.2" width="333" height="112.16671637005328" x="83.5px" y="193.9166px" xmlns="http://www.w3.org/2000/svg" xmlns:xlink="http://www.w3.org/1999/xlink" preserveAspectRatio="none"><defs></defs><style>.aD6z1nYkhcolor {fill:#25271C;fill-opacity:1;}.atBXipXk0bfillColor {fill:#EBE3E3;fill-opacity:1;}.icon3-str {stroke:#E13737;stroke-opacity:1;}.shapeStroke-str {stroke:#25271C;stroke-opacity:1;}.text {fill:#25271C;fill-opacity:1;}</style><g opacity="1" transform="rotate(0 439.7934 394.9811)">
<svg width="217.0406" height="25.2" x="439.7934" y="394.9811" version="1.1" preserveAspectRatio="none" viewBox="3.64 -29.92 259.76 30.160000000000004">
  <g transform="matrix(1 0 0 1 0 0)" class="text"><path id="id-6izo4zJp13" d="M14.88-21.40Q17.96-21.40 20.40-20.04Q22.84-18.68 24.22-16.24Q25.60-13.80 25.60-10.60L25.60-10.60Q25.60-7.40 24.22-4.94Q22.84-2.48 20.40-1.12Q17.96 0.24 14.88 0.24L14.88 0.24Q12.52 0.24 10.56-0.68Q8.60-1.60 7.32-3.36L7.32-3.36L7.32 0L3.64 0L3.64-29.68L7.48-29.68L7.48-18Q8.76-19.68 10.68-20.54Q12.60-21.40 14.88-21.40L14.88-21.40ZM14.56-3.12Q16.60-3.12 18.22-4.06Q19.84-5 20.78-6.70Q21.72-8.40 21.72-10.60L21.72-10.60Q21.72-12.80 20.78-14.50Q19.84-16.20 18.22-17.12Q16.60-18.04 14.56-18.04L14.56-18.04Q12.56-18.04 10.92-17.12Q9.28-16.20 8.36-14.50Q7.44-12.80 7.44-10.60L7.44-10.60Q7.44-8.40 8.36-6.70Q9.28-5 10.92-4.06Q12.56-3.12 14.56-3.12L14.56-3.12Z M51.28-10.48Q51.28-10.04 51.20-9.32L51.20-9.32L34-9.32Q34.36-6.52 36.46-4.82Q38.56-3.12 41.68-3.12L41.68-3.12Q45.48-3.12 47.80-5.68L47.80-5.68L49.92-3.20Q48.48-1.52 46.34-0.64Q44.20 0.24 41.56 0.24L41.56 0.24Q38.20 0.24 35.60-1.14Q33-2.52 31.58-5Q30.16-7.48 30.16-10.60L30.16-10.60Q30.16-13.68 31.54-16.16Q32.92-18.64 35.34-20.02Q37.76-21.40 40.80-21.40L40.80-21.40Q43.84-21.40 46.22-20.02Q48.60-18.64 49.94-16.16Q51.28-13.68 51.28-10.48L51.28-10.48ZM40.80-18.16Q38.04-18.16 36.18-16.48Q34.32-14.80 34-12.08L34-12.08L47.60-12.08Q47.28-14.76 45.42-16.46Q43.56-18.16 40.80-18.16L40.80-18.16Z M63.88 0.24Q61.28 0.24 58.88-0.46Q56.48-1.16 55.12-2.24L55.12-2.24L56.72-5.28Q58.12-4.28 60.12-3.68Q62.12-3.08 64.16-3.08L64.16-3.08Q69.20-3.08 69.20-5.96L69.20-5.96Q69.20-6.92 68.52-7.48Q67.84-8.04 66.82-8.30Q65.80-8.56 63.92-8.88L63.92-8.88Q61.36-9.28 59.74-9.80Q58.12-10.32 56.96-11.56Q55.80-12.80 55.80-15.04L55.80-15.04Q55.80-17.92 58.20-19.66Q60.60-21.40 64.64-21.40L64.64-21.40Q66.76-21.40 68.88-20.88Q71-20.36 72.36-19.48L72.36-19.48L70.72-16.44Q68.12-18.12 64.60-18.12L64.60-18.12Q62.16-18.12 60.88-17.32Q59.60-16.52 59.60-15.20L59.60-15.20Q59.60-14.16 60.32-13.56Q61.04-12.96 62.10-12.68Q63.16-12.40 65.08-12.04L65.08-12.04Q67.64-11.60 69.22-11.10Q70.80-10.60 71.92-9.40Q73.04-8.20 73.04-6.04L73.04-6.04Q73.04-3.16 70.58-1.46Q68.12 0.24 63.88 0.24L63.88 0.24Z M89.76-4L90.96-1.24Q90.12-0.52 88.88-0.14Q87.64 0.24 86.32 0.24L86.32 0.24Q83.12 0.24 81.36-1.48Q79.60-3.20 79.60-6.40L79.60-6.40L79.60-18.04L76-18.04L76-21.20L79.60-21.20L79.60-25.84L83.44-25.84L83.44-21.20L89.52-21.20L89.52-18.04L83.44-18.04L83.44-6.56Q83.44-4.84 84.30-3.92Q85.16-3 86.76-3L86.76-3Q88.52-3 89.76-4L89.76-4Z M116.52-26.76Q113.08-26.76 113.08-23.04L113.08-23.04L113.08-21.20L119.24-21.20L119.24-18.04L113.16-18.04L113.16 0L109.32 0L109.32-18.04L105.72-18.04L105.72-21.20L109.32-21.20L109.32-23.08Q109.32-26.24 111.16-28.08Q113.00-29.92 116.32-29.92L116.32-29.92Q117.60-29.92 118.72-29.60Q119.84-29.28 120.64-28.68L120.64-28.68L119.48-25.76Q118.16-26.76 116.52-26.76L116.52-26.76Z M132.84 0.24Q129.68 0.24 127.16-1.16Q124.64-2.56 123.22-5.02Q121.80-7.48 121.80-10.60L121.80-10.60Q121.80-13.72 123.22-16.18Q124.64-18.64 127.16-20.02Q129.68-21.40 132.84-21.40L132.84-21.40Q136.00-21.40 138.50-20.02Q141.00-18.64 142.42-16.18Q143.84-13.72 143.84-10.60L143.84-10.60Q143.84-7.48 142.42-5.02Q141.00-2.56 138.50-1.16Q136.00 0.24 132.84 0.24L132.84 0.24ZM132.84-3.12Q134.88-3.12 136.50-4.06Q138.12-5 139.04-6.70Q139.96-8.40 139.96-10.60L139.96-10.60Q139.96-12.80 139.04-14.50Q138.12-16.20 136.50-17.12Q134.88-18.04 132.84-18.04L132.84-18.04Q130.80-18.04 129.18-17.12Q127.56-16.20 126.62-14.50Q125.68-12.80 125.68-10.60L125.68-10.60Q125.68-8.40 126.62-6.70Q127.56-5 129.18-4.06Q130.80-3.12 132.84-3.12L132.84-3.12Z M154.04-17.64Q155.04-19.48 157.00-20.44Q158.96-21.40 161.76-21.40L161.76-21.40L161.76-17.68Q161.44-17.72 160.88-17.72L160.88-17.72Q157.76-17.72 155.98-15.86Q154.20-14 154.20-10.56L154.20-10.56L154.20 0L150.36 0L150.36-21.20L154.04-21.20L154.04-17.64Z M189.16 0.24Q185.92 0.24 183.38-1.16Q180.84-2.56 179.40-5.02Q177.96-7.48 177.96-10.60L177.96-10.60Q177.96-13.72 179.40-16.18Q180.84-18.64 183.38-20.02Q185.92-21.40 189.16-21.40L189.16-21.40Q192.04-21.40 194.30-20.24Q196.56-19.08 197.80-16.88L197.80-16.88L194.88-15Q193.88-16.52 192.40-17.28Q190.92-18.04 189.12-18.04L189.12-18.04Q187.04-18.04 185.38-17.12Q183.72-16.20 182.78-14.50Q181.84-12.80 181.84-10.60L181.84-10.60Q181.84-8.36 182.78-6.66Q183.72-4.96 185.38-4.04Q187.04-3.12 189.12-3.12L189.12-3.12Q190.92-3.12 192.40-3.88Q193.88-4.64 194.88-6.16L194.88-6.16L197.80-4.32Q196.56-2.12 194.30-0.94Q192.04 0.24 189.16 0.24L189.16 0.24Z M212.72 0.24Q209.56 0.24 207.04-1.16Q204.52-2.56 203.10-5.02Q201.68-7.48 201.68-10.60L201.68-10.60Q201.68-13.72 203.10-16.18Q204.52-18.64 207.04-20.02Q209.56-21.40 212.72-21.40L212.72-21.40Q215.88-21.40 218.38-20.02Q220.88-18.64 222.30-16.18Q223.72-13.72 223.72-10.60L223.72-10.60Q223.72-7.48 222.30-5.02Q220.88-2.56 218.38-1.16Q215.88 0.24 212.72 0.24L212.72 0.24ZM212.72-3.12Q214.76-3.12 216.38-4.06Q218-5 218.92-6.70Q219.84-8.40 219.84-10.60L219.84-10.60Q219.84-12.80 218.92-14.50Q218-16.20 216.38-17.12Q214.76-18.04 212.72-18.04L212.72-18.04Q210.68-18.04 209.06-17.12Q207.44-16.20 206.50-14.50Q205.56-12.80 205.56-10.60L205.56-10.60Q205.56-8.40 206.50-6.70Q207.44-5 209.06-4.06Q210.68-3.12 212.72-3.12L212.72-3.12Z M236.32 0.24Q233.72 0.24 231.32-0.46Q228.92-1.16 227.56-2.24L227.56-2.24L229.16-5.28Q230.56-4.28 232.56-3.68Q234.56-3.08 236.60-3.08L236.60-3.08Q241.64-3.08 241.64-5.96L241.64-5.96Q241.64-6.92 240.96-7.48Q240.28-8.04 239.26-8.30Q238.24-8.56 236.36-8.88L236.36-8.88Q233.80-9.28 232.18-9.80Q230.56-10.32 229.40-11.56Q228.24-12.80 228.24-15.04L228.24-15.04Q228.24-17.92 230.64-19.66Q233.04-21.40 237.08-21.40L237.08-21.40Q239.20-21.40 241.32-20.88Q243.44-20.36 244.80-19.48L244.80-19.48L243.16-16.44Q240.56-18.12 237.04-18.12L237.04-18.12Q234.60-18.12 233.32-17.32Q232.04-16.52 232.04-15.20L232.04-15.20Q232.04-14.16 232.76-13.56Q233.48-12.96 234.54-12.68Q235.60-12.40 237.52-12.04L237.52-12.04Q240.08-11.60 241.66-11.10Q243.24-10.60 244.36-9.40Q245.48-8.20 245.48-6.04L245.48-6.04Q245.48-3.16 243.02-1.46Q240.56 0.24 236.32 0.24L236.32 0.24Z M262.20-4L263.40-1.24Q262.56-0.52 261.32-0.14Q260.08 0.24 258.76 0.24L258.76 0.24Q255.56 0.24 253.80-1.48Q252.04-3.20 252.04-6.40L252.04-6.40L252.04-18.04L248.44-18.04L248.44-21.20L252.04-21.20L252.04-25.84L255.88-25.84L255.88-21.20L261.96-21.20L261.96-18.04L255.88-18.04L255.88-6.56Q255.88-4.84 256.74-3.92Q257.60-3 259.20-3L259.20-3Q260.96-3 262.20-4L262.20-4Z"/></g>
</svg>
</g><g opacity="1" transform="rotate(0 439.7934 284.9811)">
<svg width="380.3811" height="90" x="439.7934" y="284.9811" version="1.1" preserveAspectRatio="none" viewBox="1.1914 -30.3906 167.32420000000002 39.5898">
  <g transform="matrix(1 0 0 1 0 0)" class="aD6z1nYkhcolor"><path id="id-D6z1nYkh7" d="M6.45-24.24L7.68-29.61L33.01-29.61L30.68-19.51L23.85-19.51L24.92-24.24L16.70-24.24L15.21-17.87L21.80-17.87L20.49-12.21L13.91-12.21L12.30-5.35L20.04-5.35L21.23-10.61L28.09-10.61L25.64 0L1.19 0L2.44-5.35L5.47-5.35L9.84-24.24L6.45-24.24Z M44.43-8.77L32.19-8.77L33.44-14.12L45.68-14.12L44.43-8.77Z M60.59-14.20Q60.49-15.10 59.73-15.47L59.73-15.47Q58.93-15.88 57.66-15.88L57.66-15.88Q57.13-15.88 56.65-15.79Q56.17-15.70 55.82-15.52Q55.47-15.33 55.26-15.05Q55.06-14.77 55.06-14.39L55.06-14.39Q55.06-14.10 55.30-13.79Q55.55-13.48 56.23-13.32L56.23-13.32L59.43-12.64Q60.94-12.30 61.99-11.70Q63.05-11.09 63.71-10.31Q64.38-9.53 64.68-8.64Q64.98-7.75 64.98-6.88L64.98-6.88Q64.98-4.86 64.16-3.45Q63.34-2.03 62.00-1.13Q60.66-0.23 58.98 0.19Q57.30 0.61 55.59 0.61L55.59 0.61Q52.71 0.61 51.02-0.18L51.02-0.18Q50.08-0.63 49.45-1.29L49.45-1.29L46.23-1.29L47.46-6.64L53.30-6.64Q53.16-5.80 53.27-5.42Q53.38-5.04 53.71-4.74Q54.04-4.43 54.55-4.28Q55.06-4.12 55.70-4.12L55.70-4.12Q57.05-4.12 57.84-4.61Q58.63-5.10 58.63-5.92L58.63-5.92Q58.63-6.41 58.28-6.76Q57.93-7.11 56.99-7.36L56.99-7.36L54.43-8.01Q53.05-8.36 52.00-8.99Q50.96-9.63 50.25-10.45Q49.55-11.27 49.19-12.24Q48.83-13.20 48.83-14.20L48.83-14.20Q48.83-15.84 49.56-17.09Q50.29-18.34 51.54-19.17Q52.79-20 54.41-20.42Q56.04-20.84 57.83-20.84L57.83-20.84Q59.12-20.84 60.21-20.62Q61.29-20.39 62.13-20L62.13-20Q62.62-19.79 63.01-19.55L63.01-19.55L67.11-19.55L65.86-14.20L60.59-14.20Z M68.22-14.88L69.47-20.23L79.63-20.23L79.41-18.81Q80.14-19.59 81.35-20.14L81.35-20.14Q82.64-20.72 84.36-20.72L84.36-20.72Q86.00-20.72 87.52-20.15Q89.04-19.57 90.21-18.45Q91.39-17.32 92.09-15.66Q92.79-14.00 92.79-11.84L92.79-11.84Q92.79-9.96 92.30-8.33Q91.82-6.70 90.96-5.35Q90.10-4.00 88.92-2.95Q87.73-1.89 86.34-1.17Q84.94-0.45 83.39-0.07Q81.84 0.31 80.23 0.31L80.23 0.31Q79.51 0.31 78.79 0.20Q78.07 0.08 77.40-0.13Q76.74-0.33 76.19-0.61L76.19-0.61Q75.68-0.84 75.33-1.11L75.33-1.11L74.18 3.85L78.11 3.85L76.88 9.20L66.31 9.20L71.89-14.88L68.22-14.88ZM78.71-13.13L78.71-13.13Q78.26-12.70 77.89-12.13L77.89-12.13L76.89-7.83Q77.09-7.38 77.40-7.03L77.40-7.03Q77.83-6.56 78.40-6.25Q78.96-5.94 79.63-5.77Q80.29-5.61 80.96-5.61L80.96-5.61Q82.01-5.61 82.96-6.03Q83.91-6.45 84.62-7.16Q85.33-7.87 85.76-8.84Q86.19-9.80 86.19-10.92L86.19-10.92Q86.19-11.86 85.90-12.56Q85.61-13.26 85.10-13.73Q84.59-14.20 83.93-14.44Q83.26-14.69 82.50-14.69L82.50-14.69Q81.86-14.69 81.18-14.52Q80.51-14.36 79.88-14.00Q79.26-13.65 78.71-13.13Z M107.19 0L107.54-1.54Q106.82-0.78 105.63-0.25L105.63-0.25Q104.36 0.31 102.64 0.31L102.64 0.31Q101.05 0.31 99.53-0.25Q98.01-0.82 96.83-1.94Q95.64-3.07 94.91-4.73Q94.18-6.39 94.18-8.55L94.18-8.55Q94.18-10.43 94.67-12.06Q95.16-13.69 96.02-15.05Q96.88-16.41 98.06-17.46Q99.24-18.52 100.63-19.24Q102.03-19.96 103.58-20.34Q105.14-20.72 106.74-20.72L106.74-20.72Q107.64-20.72 108.27-20.61Q108.91-20.49 109.73-20.25Q110.55-20.02 111.64-19.24L111.64-19.24L111.88-20.23L118.52-20.23L115.06-5.35L118.79-5.35L117.54 0L107.19 0ZM108.26-7.27L108.26-7.27L109.12-8.34L110.10-12.56Q109.86-13.01 109.49-13.43Q109.12-13.85 108.56-14.16Q108.01-14.47 107.35-14.64Q106.70-14.80 106.04-14.80L106.04-14.80Q104.98-14.80 104.02-14.38Q103.07-13.96 102.35-13.25Q101.64-12.54 101.21-11.56Q100.78-10.59 100.78-9.47L100.78-9.47Q100.78-8.54 101.07-7.83Q101.37-7.13 101.88-6.66Q102.38-6.19 103.05-5.96Q103.71-5.72 104.47-5.72L104.47-5.72Q105.12-5.72 105.79-5.89Q106.46-6.05 107.09-6.40Q107.71-6.74 108.26-7.27Z M143.71-20.23L141.88-12.36L135.51-12.36L136.00-14.39Q135.33-14.39 134.78-14.26Q134.22-14.12 133.70-13.85Q133.18-13.57 132.70-13.16L132.70-13.16Q132.36-12.89 132.03-12.56L132.03-12.56L130.35-5.35L134.59-5.35L133.36 0L122.44 0L125.88-14.88L122.15-14.88L123.40-20.23L133.75-20.23L133.36-18.48Q134.16-19.20 135.27-19.69L135.27-19.69Q136.50-20.23 138.16-20.23L138.16-20.23L143.71-20.23Z M145.61-25.04L146.84-30.39L157.36-30.39L153.42-13.32L155.64-13.32L158.75-16.62L159.59-20.23L168.52-20.23L167.29-14.88L164.55-14.88L159.96-10.53L162.60-5.35L165.64-5.35L164.39 0L158.52 0L154.69-7.93L152.17-7.93L150.35 0L143.71 0L149.49-25.04L145.61-25.04Z"/></g>
</svg>
</g><g opacity="1" transform="rotate(0 418.7934 284.9811)">
<svg width="3" height="135.2" x="418.7934" y="284.9811" version="1.1" preserveAspectRatio="none" viewBox="0 0 3 135.2">
  <defs><rect x="0" y="0" width="3" height="135.2" rx="0px" ry="0px" id="id-tBXipXk0b1749457965265"></rect></defs><use class="atBXipXk0bfillColor shapeStroke-str" style="stroke-width:0;" xlink:href="#id-tBXipXk0b1749457965265"></use>
</svg>
</g></svg></svg>