<svg version="1.1" preserveAspectRatio="none" xmlns="http://www.w3.org/2000/svg" width="500" height="500" viewBox="0 0 500 500"><rect width="100%" height="100%" fill="#008858" fill-opacity="1"/><svg viewBox="135.5263 487.2 242.9993 136" width="333" height="186.37090724129658" x="83.5px" y="156.8145px" xmlns="http://www.w3.org/2000/svg" xmlns:xlink="http://www.w3.org/1999/xlink" preserveAspectRatio="none"><defs></defs><style>.companyName {fill:#EBE7D9;fill-opacity:1;}.icon1 {fill:#FDEAA0;fill-opacity:1;}.icon3-str {stroke:#3E5C6D;stroke-opacity:1;}.shapeStroke-str {stroke:#EBE7D9;stroke-opacity:1;}</style><g opacity="1" transform="rotate(0 135.5263 621.2)">
<svg width="242.9993" height="2" x="135.5263" y="621.2" version="1.1" preserveAspectRatio="none" viewBox="0 0 242.9993 2">
  <defs><rect x="0" y="0" width="242.9993" height="2" rx="4%" ry="4%" id="id-UPl23ini1749554006130"></rect></defs><use class="icon1 shapeStroke-str" style="stroke-width:0;" xlink:href="#id-UPl23ini1749554006130"></use>
</svg>
</g><g opacity="1" transform="rotate(0 135.5263 487.2)">
<svg width="242.9993" height="120" x="135.5263" y="487.2" version="1.1" preserveAspectRatio="none" viewBox="4 -31.6 64.8 32">
  <g transform="matrix(1 0 0 1 0 0)" class="companyName"><path id="id-D6z1nYkh3" d="M24.16-3.84Q25.08-3.84 25.64-3.32Q26.20-2.80 26.20-1.96L26.20-1.96Q26.20-1.08 25.64-0.54Q25.08 0 24.16 0L24.16 0L6.08 0Q5.20 0 4.60-0.60Q4-1.20 4-2.08L4-2.08L4-29.16Q4-30.08 4.60-30.66Q5.20-31.24 6.08-31.24L6.08-31.24L24.16-31.24Q25.08-31.24 25.64-30.70Q26.20-30.16 26.20-29.28L26.20-29.28Q26.20-28.44 25.64-27.92Q25.08-27.40 24.16-27.40L24.16-27.40L8.16-27.40L8.16-17.68L19.64-17.68Q20.52-17.68 21.10-17.14Q21.68-16.60 21.68-15.76L21.68-15.76Q21.68-14.92 21.10-14.38Q20.52-13.84 19.64-13.84L19.64-13.84L8.16-13.84L8.16-3.84L24.16-3.84Z M40.40-12.96Q41.28-12.96 41.84-12.38Q42.40-11.80 42.40-10.92L42.40-10.92Q42.40-10.04 41.84-9.48Q41.28-8.92 40.40-8.92L40.40-8.92L31.48-8.92Q30.60-8.92 30.02-9.48Q29.44-10.04 29.44-10.92L29.44-10.92Q29.44-11.80 30.02-12.38Q30.60-12.96 31.48-12.96L31.48-12.96L40.40-12.96Z M58.12-31.60Q61.56-31.60 63.92-30.20Q66.28-28.80 67.92-26.20L67.92-26.20Q68.40-25.44 68.40-24.76L68.40-24.76Q68.40-23.88 67.60-23.32L67.60-23.32Q67.16-23.04 66.56-23.04L66.56-23.04Q65.96-23.04 65.44-23.34Q64.92-23.64 64.64-24.16L64.64-24.16Q63.56-25.96 61.94-26.90Q60.32-27.84 57.84-27.84L57.84-27.84Q54.80-27.84 52.92-26.66Q51.04-25.48 51.04-23.24L51.04-23.24Q51.04-21.16 52.72-19.76Q54.40-18.36 58.72-17.92L58.72-17.92Q63.52-17.44 66.16-15.02Q68.80-12.60 68.80-8.64L68.80-8.64Q68.80-5.76 67.24-3.70Q65.68-1.64 63.10-0.62Q60.52 0.40 57.56 0.40L57.56 0.40Q53.68 0.40 50.50-1.36Q47.32-3.12 46.12-5.96L46.12-5.96Q45.92-6.44 45.92-6.76L45.92-6.76Q45.92-7.36 46.36-7.82Q46.80-8.28 47.56-8.44L47.56-8.44Q47.68-8.48 47.96-8.48L47.96-8.48Q48.60-8.48 49.18-8.10Q49.76-7.72 50.04-7.08L50.04-7.08Q50.76-5.52 52.88-4.44Q55-3.36 57.56-3.36L57.56-3.36Q60.56-3.36 62.64-4.74Q64.72-6.12 64.72-8.52L64.72-8.52Q64.72-10.80 62.96-12.42Q61.20-14.04 57.60-14.40L57.60-14.40Q52.64-14.88 49.80-17.30Q46.96-19.72 46.96-23.36L46.96-23.36Q46.96-25.92 48.42-27.78Q49.88-29.64 52.42-30.62Q54.96-31.60 58.12-31.60L58.12-31.60Z"/></g>
</svg>
</g></svg></svg>